<?xml version="1.0" encoding="UTF-8" standalone="no"?>
<!-- Created with Inkscape (http://www.inkscape.org/) -->

<svg
   width="210mm"
   height="297mm"
   viewBox="0 0 210 297"
   version="1.1"
   id="svg5"
   inkscape:version="1.1.2 (b8e25be833, 2022-02-05)"
   sodipodi:docname="baloooni.svg"
   xmlns:inkscape="http://www.inkscape.org/namespaces/inkscape"
   xmlns:sodipodi="http://sodipodi.sourceforge.net/DTD/sodipodi-0.dtd"
   xmlns="http://www.w3.org/2000/svg"
   xmlns:svg="http://www.w3.org/2000/svg">
  <sodipodi:namedview
     id="namedview7"
     pagecolor="#505050"
     bordercolor="#eeeeee"
     borderopacity="1"
     inkscape:pageshadow="0"
     inkscape:pageopacity="0"
     inkscape:pagecheckerboard="0"
     inkscape:document-units="mm"
     showgrid="false"
     inkscape:zoom="1.0565516"
     inkscape:cx="419.28855"
     inkscape:cy="449.57576"
     inkscape:window-width="1440"
     inkscape:window-height="837"
     inkscape:window-x="-8"
     inkscape:window-y="-8"
     inkscape:window-maximized="1"
     inkscape:current-layer="layer1" />
  <defs
     id="defs2" />
  <g
     inkscape:label="Layer 1"
     inkscape:groupmode="layer"
     id="layer1">
    <path
       style="fill:#000000;stroke-width:0.264583"
       d="m 137.26902,187.04533 c -5.59429,-0.51343 -11.78457,-1.87803 -12.49407,-2.75423 -0.44026,-0.54369 -0.47035,-1.68928 -0.46798,-17.8158 0.003,-17.48486 0.19491,-24.06125 0.93358,-31.91912 0.50044,-5.32365 1.75292,-14.21852 2.63944,-18.74475 0.52553,-2.6832 0.65594,-4.16366 0.65676,-7.4561 l 10e-4,-4.10814 -1.79701,-1.78323 c -1.62554,-1.61308 -1.87451,-1.76775 -2.60919,-1.62081 -0.50478,0.10095 -1.10145,0.0107 -1.57643,-0.23843 -0.42034,-0.22048 -4.60041,-4.257933 -9.28906,-8.972127 -9.84373,-9.897331 -10.0088,-10.1261 -9.97905,-13.829535 0.0202,-2.515749 0.68355,-4.152395 2.36483,-5.834696 1.74735,-1.748409 3.3037,-2.367387 5.95254,-2.367387 3.63272,0 3.58854,-0.03261 13.99628,10.331684 l 9.10148,9.063496 -0.16022,1.168913 c -0.15918,1.16137 -0.1487,1.180335 1.62294,2.938404 l 1.78315,1.769488 2.07036,-6.021411 c 1.21615,-3.537026 2.40233,-6.511653 2.87495,-7.209619 0.44252,-0.653516 1.24287,-2.498984 1.77855,-4.101041 0.81541,-2.438653 0.93366,-3.06358 0.72638,-3.838873 -0.49573,-1.854153 -0.0893,-4.022767 1.19992,-6.402111 2.8679,-5.293031 3.76334,-6.681 4.47051,-6.929445 0.56168,-0.197333 1.56773,0.02752 5.00919,1.119543 4.75242,1.508017 5.44608,1.852686 5.69079,2.827669 0.0915,0.36472 -0.0734,2.72521 -0.36654,5.245534 -0.59122,5.083258 -1.05038,6.403254 -2.81762,8.100141 -0.71577,0.68728 -1.12335,1.446151 -1.61843,3.013352 -0.36395,1.152102 -0.62139,2.135061 -0.5721,2.184356 0.0493,0.04929 3.11844,1.516573 6.82033,3.260619 3.70189,1.744046 7.13147,3.489198 7.6213,3.878114 0.48983,0.388916 1.11875,1.222888 1.3976,1.853271 0.47696,1.078249 0.50257,1.786599 0.43231,11.956321 l -0.0747,10.81017 -0.7279,1.09954 c -1.72152,2.6005 -5.42456,3.1064 -7.75575,1.05959 -1.83093,-1.60757 -1.82081,-1.55147 -1.96739,-10.9052 l -0.13229,-8.44207 -4.21588,-1.947045 c -2.31873,-1.070875 -4.29958,-1.855848 -4.40188,-1.744385 -0.10231,0.111464 -0.36047,1.447067 -0.5737,2.968009 l -0.38769,2.765348 0.68145,1.467983 c 0.64328,1.38578 0.69093,1.78654 0.85082,7.15652 0.12681,4.25865 0.31182,6.37429 0.73601,8.41666 0.7694,3.70447 2.03854,12.72517 2.53831,18.04168 0.73866,7.85787 0.93101,14.43426 0.93357,31.91912 0.002,16.12652 -0.0277,17.27211 -0.46798,17.8158 -0.53482,0.66049 -3.98815,1.58937 -8.38916,2.25651 -2.66826,0.40448 -9.83213,0.70057 -12.04241,0.49772 z m 11.89481,-4.738 c 1.37616,-0.22587 3.02515,-0.54238 3.66444,-0.70335 l 1.16233,-0.29268 -0.13169,-19.47496 c -0.13742,-20.32145 -0.2684,-23.17136 -1.52128,-33.101 -0.30296,-2.40109 -0.9003,-6.42265 -1.32743,-8.93679 -0.42713,-2.51415 -0.7766,-4.68704 -0.7766,-4.82865 0,-0.16186 -3.34055,-0.25747 -8.99583,-0.25747 -5.65528,0 -8.99583,0.0956 -8.99583,0.25747 0,0.14161 -0.34947,2.3145 -0.7766,4.82865 -0.42713,2.51414 -1.02447,6.5357 -1.32743,8.93679 -1.25299,9.93053 -1.38385,12.77874 -1.52132,33.11184 l -0.13175,19.48579 1.8124,0.406 c 1.70011,0.38084 4.68869,0.83469 7.10407,1.07884 2.06153,0.20838 9.29558,-0.10557 11.76252,-0.51048 z m -15.2021,-20.02489 c -1.14439,-0.65631 -1.17345,-0.85199 -1.18221,-7.9618 -0.007,-5.48597 0.0676,-6.97312 0.37867,-7.57471 0.65694,-1.27038 2.15392,-1.47072 3.19681,-0.42782 l 0.64944,0.64943 -0.008,7.08963 c -0.009,7.44089 -0.0324,7.59868 -1.23097,8.23704 -0.71493,0.38077 -1.12351,0.3781 -1.80333,-0.0118 z m 0.48032,-21.11353 c -1.0224,-0.41193 -1.22883,-1.20426 -1.05541,-4.05091 0.10279,-1.68719 0.30647,-2.85046 0.56935,-3.25166 0.80749,-1.23238 2.76644,-1.15215 3.43499,0.14068 0.31207,0.60349 0.35988,1.31834 0.22525,3.36795 -0.15593,2.37375 -0.23484,2.6658 -0.90016,3.33112 -0.75448,0.75447 -1.28312,0.86207 -2.27402,0.46282 z m 33.53603,-27.52413 c 0.49195,-0.26328 0.51177,-0.65661 0.51177,-10.15405 0,-8.496768 -0.056,-9.926684 -0.40026,-10.21236 -0.22015,-0.182703 -4.95221,-2.473524 -10.5157,-5.090708 -9.44394,-4.442637 -10.1576,-4.734493 -10.75069,-4.396562 -0.34939,0.199077 -0.72388,0.604715 -0.8322,0.901422 -0.18005,0.493194 0.63067,0.922533 9.45256,5.005834 5.30723,2.456503 9.93753,4.692933 10.28956,4.969843 l 0.64007,0.503473 v 8.957728 c 0,7.79061 0.0542,9.0119 0.41577,9.3735 0.49188,0.49189 0.52725,0.49611 1.18912,0.14188 z m -18.27364,-6.37614 c 0,-3.6115 -0.26699,-4.81757 -1.36002,-6.14361 -1.41328,-1.71455 -2.49689,-2.023015 -7.10665,-2.023015 -4.60976,0 -5.69337,0.308465 -7.10665,2.023015 -1.09303,1.32604 -1.36002,2.53211 -1.36002,6.14361 v 3.21045 h 8.46667 8.46667 z m -18.22538,-9.52041 1.61836,-1.618367 -0.95779,-0.957791 -0.95779,-0.957792 -1.64423,1.644227 -1.64423,1.644229 0.90327,0.931931 c 0.49679,0.512562 0.93943,0.931932 0.98365,0.931932 0.0442,0 0.80865,-0.728266 1.69876,-1.618369 z m 17.58594,-4.740333 0.1663,-1.469906 -2.42135,-1.102918 c -1.66575,-0.758741 -2.45843,-1.002787 -2.54017,-0.78205 -0.25686,0.693681 -1.70909,5.05524 -1.70909,5.133001 0,0.04546 0.74414,0.08787 1.65364,0.09424 0.90951,0.0064 2.24896,0.214728 2.97657,0.463021 l 1.32291,0.45144 0.19245,-0.658458 c 0.10584,-0.362154 0.26727,-1.319919 0.35874,-2.128369 z m -22.51019,-0.2573 2.90281,-2.911834 -7.80156,-7.804918 c -8.22836,-8.231913 -8.60614,-8.524407 -10.65488,-8.249614 -2.69779,0.36185 -4.41178,3.412328 -3.23692,5.760919 0.39148,0.78259 15.37599,16.117282 15.74923,16.117282 0.0762,0 1.44478,-1.310325 3.04132,-2.911835 z m 26.28275,-12.927715 c 0.16855,-0.562586 0.30646,-1.136155 0.30646,-1.274598 0,-0.209626 -1.24338,-0.675475 -3.46261,-1.297313 -0.30319,-0.08495 -0.51052,0.184817 -0.74594,0.970577 -0.17932,0.59853 -0.28803,1.112953 -0.24156,1.143163 0.31707,0.206143 3.31555,1.437147 3.54833,1.456741 0.15887,0.01337 0.42676,-0.435984 0.59532,-0.99857 z m 3.4509,-5.90566 c 0.37296,-0.597217 1.07466,-4.885322 1.08375,-6.622846 l 0.005,-0.983683 -2.28315,-0.696403 c -1.86963,-0.570273 -2.32601,-0.631713 -2.5198,-0.339234 -0.13016,0.196443 -0.89643,1.574764 -1.70283,3.062935 -1.09351,2.018038 -1.44498,2.924185 -1.3828,3.565104 0.0815,0.840497 0.14138,0.877938 2.7292,1.707659 3.18658,1.021697 3.60418,1.053138 4.07048,0.306468 z"
       id="path836" />
    <path
       style="opacity:0.998;fill:#e4e4e2;fill-opacity:1;fill-rule:evenodd;stroke:#000000;stroke-width:8.53954;stroke-dashoffset:94.6016;paint-order:fill markers stroke"
       d="m 513.99098,689.90117 c -1.84046,-0.33286 -8.91193,-1.5541 -15.71437,-2.71387 l -12.36808,-2.10866 0.72438,-67.80847 c 0.75328,-70.51481 1.9978,-99.90658 5.33569,-126.01236 2.05515,-16.07348 6.87162,-48.13804 7.97111,-53.06587 0.59248,-2.65545 1.77786,-2.91566 17.38244,-3.8157 9.21063,-0.53125 24.20552,-0.53569 33.32196,-0.01 l 16.57536,0.95603 3.46805,21.59893 c 8.43067,52.50592 10.1555,81.09009 10.19968,169.0315 l 0.0297,59.09037 -11.94958,2.19603 c -11.5557,2.12365 -48.15427,3.89574 -54.97633,2.66195 z m 2.04873,-78.66301 c 1.57052,-2.24224 1.96683,-8.18832 1.96683,-29.50982 0,-22.9679 -0.30977,-27.04405 -2.21524,-29.14956 -2.95342,-3.2635 -8.8228,-3.10386 -11.92529,0.32435 -2.26262,2.50017 -2.51062,5.22525 -2.52767,27.77425 -0.0104,13.75116 0.40976,26.56063 0.9337,28.4655 1.76162,6.40473 9.88344,7.64078 13.76767,2.09528 z m -1.43944,-76.66235 c 3.95447,-1.51747 6.0833,-7.96864 6.0833,-18.43468 0,-8.84679 -0.35079,-10.27517 -2.97486,-12.11314 -3.8639,-2.70637 -6.76037,-2.63373 -10.31688,0.25873 -2.28024,1.8545 -3.04602,4.33326 -3.67644,11.90024 -0.97076,11.65227 0.0561,16.28498 3.95767,17.8549 3.75033,1.50906 4.27977,1.54987 6.92721,0.53395 z"
       id="path5469"
       transform="scale(0.26458333)" />
    <path
       style="opacity:0.998;fill:#e4e4e2;fill-opacity:1;fill-rule:evenodd;stroke:#000000;stroke-width:8.53954;stroke-dashoffset:94.6016;paint-order:fill markers stroke"
       d="m 501.95207,409.25193 c 0.0116,-10.52062 2.22003,-21.98459 4.9394,-25.64051 4.24113,-5.70176 9.14697,-7.6212 21.50996,-8.4159 20.52242,-1.31918 30.98076,2.68045 35.02957,13.39652 0.78302,2.07243 1.42367,9.14985 1.42367,15.72759 v 11.95952 H 533.3995 501.94432 Z"
       id="path5508"
       transform="scale(0.26458333)" />
    <path
       style="opacity:0.998;fill:#e4e4e2;fill-opacity:1;fill-rule:evenodd;stroke:#000000;stroke-width:8.53954;stroke-dashoffset:94.6016;paint-order:fill markers stroke"
       d="m 436.57981,330.05051 c -29.14728,-29.48188 -29.67028,-30.10948 -29.67028,-35.60459 0,-4.57677 0.82736,-6.42106 4.55096,-10.14466 3.70403,-3.70403 5.5781,-4.55096 10.07029,-4.55096 6.18929,0 9.18421,2.54422 47.94833,40.73262 l 19.06775,18.78456 -10.33598,10.39695 c -5.68478,5.71833 -10.70156,10.39696 -11.14838,10.39696 -0.44683,0 -14.16404,-13.5049 -30.48269,-30.01088 z"
       id="path5547"
       transform="scale(0.26458333)" />
    <path
       style="opacity:0.998;fill:#6cbae5;fill-opacity:1;fill-rule:evenodd;stroke:#000000;stroke-width:8.53954;stroke-dashoffset:94.6016;paint-order:fill markers stroke"
       d="m 581.58615,279.57338 c -14.69022,-4.8835 -15.39348,-5.29373 -15.37526,-8.96878 0.0163,-3.28251 9.38915,-22.04798 11.69708,-23.41876 0.55063,-0.32704 4.31398,0.42578 8.36299,1.67294 l 7.36185,2.26756 -0.34316,8.69388 c -0.42177,10.6853 -3.12382,20.49909 -5.73688,20.83629 -1.07309,0.13848 -3.75807,-0.34893 -5.96662,-1.08313 z"
       id="path5586"
       transform="scale(0.26458333)" />
    <path
       style="opacity:0.998;fill:#6cbae5;fill-opacity:1;fill-rule:evenodd;stroke:#000000;stroke-width:6.03836;stroke-dashoffset:94.6016;paint-order:fill markers stroke"
       d=""
       id="path8275"
       transform="scale(0.26458333)" />
    <path
       style="opacity:0.998;fill:#6cbae5;fill-opacity:1;fill-rule:evenodd;stroke:#000000;stroke-width:1.50959;stroke-dashoffset:94.6016;paint-order:fill markers stroke"
       d="m 631.37043,429.69755 c -1.19094,-0.87583 -1.65394,-1.96399 -1.99493,-4.68862 -0.16763,-1.33942 -0.29714,-13.0713 -0.37267,-33.75971 l -0.11577,-31.70692 -1.62021,-1.21453 c -2.63789,-1.9774 -13.32912,-7.15277 -50.27185,-24.33542 -17.45835,-8.12015 -24.68889,-11.89991 -25.07177,-13.10625 -0.31315,-0.98666 1.55997,-3.3289 3.33623,-4.1718 1.06816,-0.50687 2.3031,-0.29937 5.62652,0.9454 5.78513,2.16678 38.76692,17.52715 63.6694,29.65228 10.95505,5.33406 10.68307,5.18094 11.11631,6.2582 0.81517,2.02688 0.93707,7.03762 0.9368,38.50721 -2.4e-4,37.44422 0.0694,36.4082 -2.53812,37.685 -0.72702,0.35598 -1.41406,0.64725 -1.52675,0.64725 -0.1127,0 -0.64063,-0.32045 -1.17319,-0.71209 z"
       id="path8431"
       transform="scale(0.26458333)" />
    <path
       style="opacity:0.998;fill:#a8a8a8;fill-opacity:1;fill-rule:evenodd;stroke:#000000;stroke-width:1.06744;stroke-dashoffset:94.6016;paint-order:fill markers stroke"
       d="m 486.93718,372.02188 -3.42501,-3.48188 6.16144,-6.16314 6.16145,-6.16313 3.56846,3.55515 3.56845,3.55515 -5.79721,5.72838 c -3.18847,3.1506 -6.02567,5.89104 -6.30489,6.08987 l -0.50767,0.36149 z"
       id="path8470"
       transform="scale(0.26458333)" />
    <path
       style="opacity:0.998;fill:#a8a8a8;fill-opacity:1;fill-rule:evenodd;stroke:#000000;stroke-width:2.13488;stroke-dashoffset:94.6016;paint-order:fill markers stroke"
       d="m 558.3294,360.84631 c -4.0743,-1.45348 -8.03642,-2.13697 -13.64754,-2.35427 -2.90499,-0.11249 -5.34734,-0.3106 -5.42746,-0.44023 -0.0801,-0.12962 1.29312,-4.54916 3.05163,-9.8212 2.13746,-6.40811 3.35101,-9.58551 3.66102,-9.58551 0.86698,0 5.65307,1.89854 11.78296,4.67404 l 6.1132,2.76794 -0.203,1.71674 c -0.97322,8.23059 -2.02584,13.64086 -2.68561,13.80349 -0.16654,0.0411 -1.35688,-0.3014 -2.6452,-0.761 z"
       id="path13338"
       transform="scale(0.26458333)" />
    <path
       style="opacity:0.998;fill:#a8a8a8;fill-opacity:1;fill-rule:evenodd;stroke:#000000;stroke-width:2.13488;stroke-dashoffset:94.6016;paint-order:fill markers stroke"
       d="m 569.20486,302.89347 c -7.4418,-3.05743 -7.13879,-2.86774 -6.86997,-4.30067 0.45717,-2.43689 1.53262,-5.36873 2.18638,-5.96037 0.6599,-0.59721 0.78864,-0.58066 4.92303,0.63251 5.67427,1.66503 9.13018,3.11868 9.13018,3.84039 0,0.96451 -1.32828,5.40638 -2.02523,6.77252 -0.39249,0.76934 -0.9028,1.30015 -1.2442,1.29418 -0.31835,-0.006 -3.06343,-1.03092 -6.10019,-2.27856 z"
       id="path13377"
       transform="scale(0.26458333)" />
  </g>
</svg>
